<?xml version="1.0" encoding="utf-8"?>
<!-- Generator: Adobe Illustrator 27.3.1, SVG Export Plug-In . SVG Version: 6.00 Build 0)  -->
<svg version="1.1" id="Layer_1" xmlns="http://www.w3.org/2000/svg" xmlns:xlink="http://www.w3.org/1999/xlink" x="0px" y="0px"
	 viewBox="0 0 165 35" style="enable-background:new 0 0 165 35;" xml:space="preserve">
<style type="text/css">
	.st0{fill:#C7C7D6;}
	.st1{fill-rule:evenodd;clip-rule:evenodd;fill:#C7C7D6;}
</style>
<path class="st0" d="M45.3,28.3c-1.4,0-2.8-0.3-4-0.8C40,27,38.9,26.3,38,25.4c-0.9-0.9-1.7-2-2.2-3.2c-0.5-1.3-0.8-2.6-0.8-4
	c0-1.4,0.3-2.7,0.8-3.9c0.5-1.2,1.2-2.3,2.2-3.2c0.9-0.9,2-1.7,3.2-2.2c1.2-0.5,2.6-0.8,4-0.8c1.4,0,2.8,0.3,4,0.8
	c1.2,0.5,2.3,1.2,3.2,2.2c0.9,0.9,1.7,2,2.2,3.2c0.5,1.2,0.8,2.6,0.8,4c0,1.4-0.3,2.7-0.8,4c-0.5,1.2-1.2,2.3-2.2,3.2
	c-0.9,0.9-2,1.6-3.2,2.2C48,28,46.7,28.3,45.3,28.3z M54.1,29.5l-9-9l2.3-2.3l9,9L54.1,29.5z M45.2,24.8c1.3,0,2.3-0.3,3.3-0.8
	c1-0.6,1.7-1.3,2.2-2.3c0.5-1,0.8-2.1,0.8-3.5c0-1-0.2-1.9-0.5-2.7c-0.3-0.8-0.7-1.5-1.3-2.1c-0.6-0.6-1.2-1.1-2-1.4
	s-1.6-0.5-2.5-0.5c-1.2,0-2.3,0.3-3.3,0.8c-0.9,0.5-1.7,1.3-2.2,2.3c-0.5,1-0.8,2.1-0.8,3.4c0,1,0.1,1.9,0.4,2.7
	c0.3,0.8,0.7,1.5,1.3,2.1c0.6,0.6,1.2,1,2,1.3C43.4,24.6,44.3,24.8,45.2,24.8z M64.4,28.3c-1.2,0-2.3-0.3-3.2-0.8
	c-0.9-0.5-1.6-1.2-2.2-2.1c-0.5-0.9-0.8-1.9-0.8-3.1v-7.8h3.7v7.8c0,0.6,0.1,1,0.3,1.5c0.2,0.4,0.5,0.7,0.8,0.9
	c0.4,0.2,0.8,0.3,1.3,0.3c0.8,0,1.4-0.2,1.8-0.7c0.4-0.5,0.6-1.1,0.6-2v-7.8h3.7v7.8c0,1.2-0.3,2.2-0.8,3.1
	c-0.5,0.9-1.2,1.6-2.2,2.1C66.6,28,65.6,28.3,64.4,28.3z M73.4,28V14.5h3.7V28H73.4z M75.2,12.3c-0.6,0-1.1-0.2-1.5-0.6
	c-0.4-0.4-0.6-0.9-0.6-1.5c0-0.6,0.2-1.1,0.6-1.5c0.4-0.4,0.9-0.6,1.5-0.6c0.6,0,1.1,0.2,1.5,0.6c0.4,0.4,0.6,0.9,0.6,1.5
	c0,0.6-0.2,1.1-0.6,1.5C76.3,12.1,75.8,12.3,75.2,12.3z M86.7,28.3c-1.4,0-2.6-0.3-3.7-0.9c-1.1-0.6-2-1.5-2.6-2.5
	c-0.6-1.1-1-2.3-1-3.6c0-1.3,0.3-2.5,1-3.6c0.6-1.1,1.5-1.9,2.6-2.5c1.1-0.6,2.4-1,3.7-1c1.1,0,2,0.2,2.9,0.6c0.9,0.4,1.7,1,2.3,1.7
	l-2.4,2.4c-0.4-0.4-0.8-0.7-1.3-0.9c-0.5-0.2-1-0.3-1.6-0.3c-0.7,0-1.3,0.2-1.8,0.5c-0.5,0.3-0.9,0.7-1.3,1.3
	c-0.3,0.5-0.4,1.1-0.4,1.9c0,0.7,0.1,1.3,0.4,1.9c0.3,0.5,0.7,1,1.3,1.3c0.5,0.3,1.1,0.4,1.8,0.4c0.6,0,1.2-0.1,1.7-0.3
	c0.5-0.2,0.9-0.5,1.3-1L92,26c-0.7,0.7-1.5,1.3-2.4,1.7C88.8,28.1,87.8,28.3,86.7,28.3z M102.7,28l-5.2-7l5.2-6.6h4.2l-6.1,7.4
	l0.1-1.8l6.2,7.9H102.7z M94.1,28V7.8h3.7V28H94.1z M115,28.3c-1.6,0-2.9-0.3-4.1-0.8c-1.1-0.5-2.1-1.4-3.1-2.4l2.5-2.5
	c0.6,0.8,1.3,1.4,2,1.8c0.8,0.4,1.7,0.6,2.8,0.6c1,0,1.8-0.2,2.4-0.6c0.6-0.4,0.9-0.9,0.9-1.6c0-0.6-0.2-1.1-0.5-1.5
	c-0.3-0.4-0.8-0.7-1.3-1c-0.5-0.3-1.1-0.5-1.8-0.7c-0.7-0.2-1.3-0.5-2-0.8c-0.7-0.3-1.3-0.6-1.8-1c-0.5-0.4-1-1-1.3-1.6
	c-0.3-0.7-0.5-1.5-0.5-2.5c0-1.2,0.3-2.2,0.9-3.1c0.6-0.8,1.4-1.5,2.4-1.9c1-0.4,2.1-0.7,3.4-0.7c1.3,0,2.6,0.3,3.6,0.8
	c1.1,0.5,2,1.2,2.7,2l-2.5,2.5c-0.6-0.6-1.2-1.1-1.8-1.4c-0.6-0.3-1.3-0.4-2-0.4c-0.9,0-1.6,0.2-2.1,0.5c-0.5,0.3-0.8,0.8-0.8,1.5
	c0,0.5,0.2,1,0.5,1.3c0.3,0.3,0.8,0.6,1.3,0.9c0.6,0.2,1.2,0.5,1.8,0.7c0.7,0.2,1.3,0.5,2,0.8c0.7,0.3,1.3,0.6,1.8,1.1
	c0.6,0.4,1,1,1.3,1.7c0.3,0.7,0.5,1.5,0.5,2.6c0,1.8-0.6,3.3-1.9,4.3C119,27.8,117.2,28.3,115,28.3z M126.8,28V8.8h3.7V28H126.8z
	 M123.7,17.7v-3.2h10v3.2H123.7z M141.1,28.3c-1.2,0-2.3-0.3-3.3-0.9c-1-0.6-1.8-1.5-2.3-2.5c-0.6-1.1-0.8-2.3-0.8-3.6
	c0-1.3,0.3-2.5,0.8-3.6c0.6-1.1,1.3-1.9,2.3-2.5c1-0.6,2.1-0.9,3.3-0.9c1,0,1.8,0.2,2.6,0.6c0.8,0.4,1.4,0.9,1.8,1.7
	c0.5,0.7,0.7,1.5,0.8,2.4v4.9c0,0.9-0.3,1.7-0.8,2.4c-0.4,0.7-1.1,1.2-1.8,1.7C142.9,28.1,142,28.3,141.1,28.3z M141.7,24.9
	c1,0,1.9-0.3,2.5-1c0.6-0.7,1-1.6,1-2.7c0-0.7-0.1-1.3-0.4-1.9c-0.3-0.6-0.7-1-1.2-1.3c-0.5-0.3-1.1-0.5-1.8-0.5
	c-0.7,0-1.3,0.2-1.8,0.5c-0.5,0.3-0.9,0.7-1.2,1.3c-0.3,0.5-0.4,1.2-0.4,1.9c0,0.7,0.1,1.4,0.4,1.9c0.3,0.5,0.7,1,1.2,1.3
	C140.5,24.7,141.1,24.9,141.7,24.9z M145,28v-3.6l0.6-3.3l-0.6-3.2v-3.3h3.6V28H145z M156.1,28.1l-5.7-13.6h4l3.8,10.4h-1.3
	l3.9-10.4h4l-6,13.6H156.1z M152.4,33.7l4.1-8.7l2.2,3.2l-2.5,5.5H152.4z"/>
<path class="st1" d="M0.7,11.9C0,13.1,0,14.7,0,17.8v2.1c0,5.3,0,7.9,1.6,9.5C3.2,31,5.7,31,10.8,31h5.4c5.1,0,7.6,0,9.2-1.6
	c1.6-1.6,1.6-4.3,1.6-9.5v-2.1c0-3.1,0-4.6-0.7-5.9c-0.7-1.3-2-2.1-4.5-3.7l-2.7-1.7C16.3,4.8,15,4,13.5,4s-2.8,0.8-5.6,2.5L5.2,8.2
	C2.7,9.8,1.4,10.6,0.7,11.9z M10.1,22.1c-0.4-0.3-1.1-0.2-1.4,0.2c-0.3,0.4-0.2,1.1,0.2,1.4c1.3,1,2.9,1.5,4.7,1.5s3.3-0.6,4.7-1.5
	c0.4-0.3,0.5-1,0.2-1.4c-0.3-0.4-1-0.5-1.4-0.2c-1,0.7-2.2,1.2-3.4,1.2S11,22.8,10.1,22.1z"/>
</svg>
